<?xml version="1.0" standalone="no"?><!DOCTYPE svg PUBLIC "-//W3C//DTD SVG 1.1//EN" "http://www.w3.org/Graphics/SVG/1.1/DTD/svg11.dtd"><svg t="1609071535204" class="icon" viewBox="0 0 1024 1024" version="1.1" xmlns="http://www.w3.org/2000/svg" p-id="482" width="200" height="200" xmlns:xlink="http://www.w3.org/1999/xlink"><defs><style type="text/css"></style></defs><path d="M505.96786702 1002.97801439c-268.90702124 0-487.61733332-218.76367227-487.6173334-487.61733342s218.71033462-487.56399525 487.6173334-487.56401765c268.8536609 0 487.56399525 218.71033462 487.56399555 487.56401765s-218.71033462 487.61733332-487.56399555 487.61733342z m0-944.9886485c-252.21035814 0-457.42465253 205.21429442-457.42465277 457.37131508 0 252.26369599 205.21429442 457.42465253 457.42465277 457.42463056s457.37129284-205.21429442 457.37131528-457.42463056c0-252.15699813-205.21429442-457.37129284-457.37131528-457.37131508z" p-id="483" fill="#1296db"></path><path d="M518.61039116 698.17050199v-170.11395915h170.16729692v-38.94110122h-170.16729692v-170.11395926h-38.94110114v170.11395926h-170.1139594v38.94110122h170.1139594v170.11395915z" p-id="484" fill="#1296db"></path></svg>